<svg width="170" height="34" viewBox="0 0 170 34" fill="none" xmlns="http://www.w3.org/2000/svg">
<g opacity="0.5">
<mask id="mask0" mask-type="alpha" maskUnits="userSpaceOnUse" x="0" y="1" width="33" height="33">
<path fill-rule="evenodd" clip-rule="evenodd" d="M0 1.00024H32.4308V33.4308H0V1.00024Z" fill="white"/>
</mask>
<g mask="url(#mask0)">
<path fill-rule="evenodd" clip-rule="evenodd" d="M27.392 24.6748C26.089 26.6308 24.422 27.6658 22.57 27.6658C21.758 27.6658 20.901 27.4678 20.022 27.0798C19.093 26.6678 18.276 25.9128 17.721 24.9548C17.166 23.9968 16.947 22.9648 17.105 22.0368C17.295 21.2208 17.725 20.1138 18.22 18.8308C19.512 15.4928 21.279 10.9238 19.751 8.68782C19.108 7.74382 17.952 7.28382 16.213 7.27782C14.477 7.28382 13.32 7.74482 12.676 8.68782C11.15 10.9238 12.917 15.4928 14.21 18.8368C14.704 20.1168 15.134 21.2238 15.324 22.0468C15.481 22.9648 15.262 23.9968 14.709 24.9548C14.155 25.9128 13.337 26.6678 12.408 27.0788C11.53 27.4678 10.672 27.6658 9.86 27.6658C8.008 27.6658 6.341 26.6308 5.043 24.6838L4.892 24.4148C5.517 24.7278 6.695 25.2388 7.716 25.2388C8.228 25.2388 8.706 25.0868 9.18 24.7688C11.805 23.0228 10.908 20.9278 9.118 17.6858C8.361 16.3138 7.577 14.8948 7.231 13.4318C6.855 11.8578 6.516 9.56582 7.88 7.82982C8.521 7.01582 9.497 6.38782 10.78 5.96282C12.112 5.52182 13.83 5.28282 15.883 5.25582L16.405 5.25182L16.546 5.25582C18.6 5.28282 20.315 5.52182 21.65 5.96382C22.931 6.38782 23.908 7.01582 24.549 7.82982C25.913 9.56382 25.574 11.8578 25.2 13.4318C24.852 14.8948 24.069 16.3108 23.311 17.6858C21.521 20.9278 20.624 23.0228 23.248 24.7688C23.723 25.0868 24.203 25.2388 24.714 25.2388C25.736 25.2388 26.914 24.7278 27.538 24.4148L27.392 24.6748ZM16.214 0.999817C7.261 0.999817 0 8.25982 0 17.2168C0 26.1728 7.261 33.4308 16.214 33.4308C25.171 33.4308 32.431 26.1728 32.431 17.2168C32.431 8.25982 25.171 0.999817 16.214 0.999817Z" fill="#FEFEFE"/>
</g>
<mask id="mask1" mask-type="alpha" maskUnits="userSpaceOnUse" x="0" y="1" width="170" height="33">
<path fill-rule="evenodd" clip-rule="evenodd" d="M0 33.4312H169.069V1.00024H0V33.4312Z" fill="white"/>
</mask>
<g mask="url(#mask1)">
<path fill-rule="evenodd" clip-rule="evenodd" d="M43.1699 27.4862H46.5689V5.38818H43.1699V27.4862Z" fill="#FEFEFE"/>
<path fill-rule="evenodd" clip-rule="evenodd" d="M63.3301 27.4857H59.9311V26.0577C59.1151 27.0097 57.6531 27.8257 55.8851 27.8257C52.4511 27.8257 50.5811 25.5477 50.5811 22.2157V12.3907H53.9811V21.6377C53.9811 23.5077 54.8651 24.7317 56.8031 24.7317C58.2651 24.7317 59.5571 23.8137 59.9311 22.3187V12.3907H63.3301V27.4857Z" fill="#FEFEFE"/>
<path fill-rule="evenodd" clip-rule="evenodd" d="M67.5479 27.4862H70.9469V5.38818H67.5479V27.4862Z" fill="#FEFEFE"/>
<path fill-rule="evenodd" clip-rule="evenodd" d="M87.708 27.4857H84.309V26.0577C83.493 27.0097 82.031 27.8257 80.263 27.8257C76.829 27.8257 74.959 25.5477 74.959 22.2157V12.3907H78.359V21.6377C78.359 23.5077 79.243 24.7317 81.181 24.7317C82.643 24.7317 83.935 23.8137 84.309 22.3187V12.3907H87.708V27.4857Z" fill="#FEFEFE"/>
<path fill-rule="evenodd" clip-rule="evenodd" d="M91.9258 27.4862H95.3248V5.38818H91.9258V27.4862Z" fill="#FEFEFE"/>
<path fill-rule="evenodd" clip-rule="evenodd" d="M101.921 18.2388H108.754C108.721 16.4028 107.667 14.9068 105.593 14.9068C103.723 14.9068 102.329 16.0628 101.921 18.2388ZM111.984 22.7948C111.474 25.7858 109.265 27.8258 105.627 27.8258C101.411 27.8258 98.4873 24.6308 98.4873 19.9728C98.4873 15.4508 101.445 12.0518 105.559 12.0518C109.809 12.0518 112.12 15.0768 112.12 19.4968V20.7208H101.819C101.921 23.3718 103.451 24.9698 105.627 24.9698C107.259 24.9698 108.483 24.2568 108.857 22.7948H111.984Z" fill="#FEFEFE"/>
<path fill-rule="evenodd" clip-rule="evenodd" d="M130.887 12.0511C133.981 12.0511 135.783 14.2271 135.783 17.6601V27.4861H132.383V18.2041C132.383 16.3351 131.567 15.1111 129.901 15.1111C128.678 15.1111 127.521 15.8591 127.216 17.3551V27.4861H123.816V18.2041C123.816 16.3351 123 15.1111 121.334 15.1111C120.11 15.1111 118.954 15.8591 118.648 17.3551V27.4861H115.249V12.3911H118.648V13.6491C119.362 12.6971 120.722 12.0511 122.422 12.0511C124.122 12.0511 125.617 12.9011 126.4 14.0571C127.453 12.8331 128.847 12.0511 130.887 12.0511Z" fill="#FEFEFE"/>
<path fill-rule="evenodd" clip-rule="evenodd" d="M145.916 14.9751C143.468 14.9751 142.143 17.0831 142.143 19.9381C142.143 22.7941 143.468 24.9021 145.916 24.9021C148.364 24.9021 149.69 22.7941 149.69 19.9381C149.69 17.0831 148.364 14.9751 145.916 14.9751ZM145.916 27.8261C141.666 27.8261 138.743 24.5621 138.743 19.9381C138.743 15.3151 141.666 12.0511 145.916 12.0511C150.166 12.0511 153.089 15.3151 153.089 19.9381C153.089 24.5621 150.166 27.8261 145.916 27.8261Z" fill="#FEFEFE"/>
<path fill-rule="evenodd" clip-rule="evenodd" d="M156.252 12.3911H159.651V13.8191C160.467 12.8671 161.963 12.0511 163.731 12.0511C167.165 12.0511 169.068 14.3291 169.068 17.6611V27.4861H165.669V18.2391C165.669 16.3691 164.751 15.1451 162.813 15.1451C161.352 15.1451 160.025 16.0631 159.651 17.5591V27.4861H156.252V12.3911Z" fill="#FEFEFE"/>
</g>
</g>
</svg>
