<svg width="150" height="32" viewBox="0 0 150 32" fill="none" xmlns="http://www.w3.org/2000/svg">
<path fill-rule="evenodd" clip-rule="evenodd" d="M127 5V5.67606H125.348V11H124.652V5.67606H123V5H127Z" fill="black"/>
<path fill-rule="evenodd" clip-rule="evenodd" d="M132.934 5.67606H129.882V7.59437H132.773V8.25352H129.882V10.3239H133V11H129V5H132.934V5.67606Z" fill="black"/>
<path fill-rule="evenodd" clip-rule="evenodd" d="M134.681 10.4468C134.304 9.90809 134.115 9.14777 134.115 8.16543V7.70135C134.115 6.72516 134.314 5.96623 134.712 5.42456C135.11 4.88289 135.68 4.61206 136.423 4.61206C137.737 4.61206 138.474 5.35611 138.633 6.8442L137.811 6.97813C137.776 6.44837 137.64 6.04043 137.404 5.75492C137.169 5.4692 136.838 5.32615 136.414 5.32615C135.919 5.32615 135.553 5.51543 135.318 5.89321C135.082 6.27139 134.964 6.85908 134.964 7.65651V8.11186C134.964 8.91563 135.086 9.52119 135.331 9.92893C135.576 10.3367 135.937 10.5406 136.414 10.5406C136.844 10.5406 137.176 10.3976 137.409 10.1121C137.641 9.82635 137.776 9.41563 137.811 8.87992L138.624 9.04956C138.554 9.71623 138.33 10.2504 137.953 10.6521C137.575 11.0539 137.042 11.2549 136.352 11.2549C135.615 11.2549 135.058 10.9857 134.681 10.4468Z" fill="black"/>
<mask id="mask0" mask-type="alpha" maskUnits="userSpaceOnUse" x="139" y="4" width="5" height="8">
<path fill-rule="evenodd" clip-rule="evenodd" d="M139.916 4.76367H143.965V11.103H139.916V4.76367Z" fill="white"/>
</mask>
<g mask="url(#mask0)">
<path fill-rule="evenodd" clip-rule="evenodd" d="M143.965 11.103H143.143V8.2101H140.738V11.103H139.916V4.76367H140.738V7.51367H143.143V4.76367H143.965V11.103Z" fill="black"/>
</g>
<mask id="mask1" mask-type="alpha" maskUnits="userSpaceOnUse" x="5" y="4" width="24" height="25">
<path fill-rule="evenodd" clip-rule="evenodd" d="M5 4.78003H28.7841V28.3273H5V4.78003Z" fill="white"/>
</mask>
<g mask="url(#mask1)">
<path fill-rule="evenodd" clip-rule="evenodd" d="M19.0906 18.8747L15.2264 7.53836L11.3624 18.8747H19.0906ZM27.0687 27.1834C27.4569 27.6324 28.0289 27.935 28.7842 28.0917V28.3273H19.357V28.0917C20.0233 27.957 20.5116 27.7386 20.8228 27.4356C21.1334 27.133 21.2892 26.7126 21.2892 26.1743C21.2892 25.5915 21.1444 24.8961 20.8562 24.0886L19.357 19.7155H11.0626L9.49705 24.2905C9.27483 24.9411 9.16401 25.5015 9.16401 25.9723C9.16401 26.6005 9.35794 27.0773 9.74678 27.4023C10.135 27.7275 10.6962 27.957 11.429 28.0917V28.3273H5V28.0917C5.86609 27.9126 6.53746 27.5425 7.0153 26.9816C7.49255 26.4213 7.9533 25.5132 8.39774 24.2568L15.2264 4.78003H18.7908L25.8861 24.8288C26.2859 25.9503 26.6799 26.735 27.0687 27.1834Z" fill="black"/>
</g>
<path fill-rule="evenodd" clip-rule="evenodd" d="M36.8118 16.0827C38.6106 16.0827 39.9207 15.6234 40.7424 14.7036C41.5639 13.7843 41.9751 12.4163 41.9751 10.5996C41.9751 8.91765 41.6305 7.64523 40.9424 6.78174C40.2538 5.91864 39.0102 5.4865 37.2116 5.4865H35.3795V16.0827H36.8118ZM28.584 28.0919C29.5167 27.9571 30.1495 27.6714 30.4828 27.2341C30.8158 26.7968 30.9824 25.995 30.9824 24.829V8.04305C30.9824 7.03392 30.8101 6.31646 30.4661 5.89027C30.1214 5.46448 29.4943 5.17281 28.584 5.01567V4.78015H38.1443C41.164 4.78015 43.3627 5.26785 44.7398 6.24345C46.1165 7.21904 46.8052 8.63749 46.8052 10.4986C46.8052 11.6425 46.4663 12.6573 45.7892 13.543C45.1115 14.4292 44.1955 15.1071 43.041 15.5782C41.8861 16.0492 40.6426 16.2847 39.3101 16.2847V16.4528C40.8424 16.4307 42.1859 16.7611 43.3407 17.4452C44.4952 18.1296 45.3395 19.1329 45.8725 20.4559L47.6713 24.9633C48.4484 26.847 49.5033 27.879 50.8358 28.0581V28.3272H44.5068C44.0179 27.5873 43.4849 26.4214 42.9078 24.829L41.0756 20.1867C40.6978 19.2448 40.3428 18.5331 40.0097 18.0506C39.6767 17.5686 39.2769 17.2264 38.8104 17.0248C38.3442 16.8228 37.7331 16.7218 36.9784 16.7218H35.3795V24.829C35.3795 25.8831 35.5569 26.6567 35.9123 27.15C36.2674 27.6434 36.8894 27.9571 37.7779 28.0919V28.3272H28.584V28.0919Z" fill="black"/>
<mask id="mask2" mask-type="alpha" maskUnits="userSpaceOnUse" x="49" y="4" width="24" height="25">
<path fill-rule="evenodd" clip-rule="evenodd" d="M49.3037 4.1073H72.8547V28.9999H49.3037V4.1073Z" fill="white"/>
</mask>
<g mask="url(#mask2)">
<path fill-rule="evenodd" clip-rule="evenodd" d="M66.2091 25.1484C67.3526 23.2309 67.9246 20.3664 67.9246 16.5537C67.9246 12.6968 67.3583 9.82079 66.2258 7.92536C65.0933 6.03051 63.3829 5.0829 61.0959 5.0829C58.8083 5.0829 57.0985 6.03051 55.966 7.92536C54.8335 9.82079 54.267 12.6968 54.267 16.5537C54.267 24.2013 56.5432 28.0246 61.0959 28.0246C63.3609 28.0246 65.0652 27.0658 66.2091 25.1484ZM54.9834 27.419C53.1954 26.3652 51.802 24.8908 50.8027 22.9954C49.8034 21.1008 49.3037 18.9535 49.3037 16.5537C49.3037 14.1543 49.8034 12.0073 50.8027 10.1119C51.802 8.21702 53.1954 6.74262 54.9834 5.68825C56.7706 4.63448 58.8083 4.1073 61.0959 4.1073C63.3829 4.1073 65.4149 4.63448 67.1917 5.68825C68.9683 6.74262 70.3564 8.21702 71.3557 10.1119C72.355 12.0073 72.8547 14.1543 72.8547 16.5537C72.8547 18.9535 72.355 21.1008 71.3557 22.9954C70.3564 24.8908 68.9683 26.3652 67.1917 27.419C65.4149 28.4728 63.3829 29 61.0959 29C58.8083 29 56.7706 28.4728 54.9834 27.419Z" fill="black"/>
</g>
<path fill-rule="evenodd" clip-rule="evenodd" d="M77.2515 7.80761L76.3522 23.887C76.2856 24.986 76.3465 25.81 76.5354 26.3594C76.7238 26.909 77.0515 27.3013 77.518 27.5368C77.9844 27.7721 78.6949 27.9572 79.65 28.0917V28.3273H72.8213V28.0917C73.4652 27.9572 73.9591 27.7554 74.3035 27.4864C74.6476 27.2171 74.9032 26.8084 75.0698 26.2584C75.2362 25.7092 75.3527 24.9187 75.4195 23.887L76.2856 8.51416C76.3298 7.68459 76.2907 7.03975 76.1689 6.57983C76.0465 6.12051 75.8137 5.77824 75.4695 5.55384C75.1248 5.32983 74.6309 5.15007 73.987 5.01555V4.78003H80.7495L87.4782 21.6332L94.2068 4.78003H100.736V5.01555C100.092 5.12805 99.6036 5.2963 99.2703 5.52011C98.9373 5.74471 98.7041 6.09789 98.5709 6.57983C98.4376 7.06237 98.3928 7.74035 98.4376 8.61495L99.3033 24.6941C99.3479 25.7931 99.5586 26.5949 99.9366 27.0993C100.314 27.6038 100.947 27.935 101.835 28.0917V28.3273H92.3414V28.0917C93.3183 27.9126 93.9958 27.5257 94.3734 26.9312C94.7509 26.3374 94.9063 25.4007 94.8401 24.1225L94.107 7.67308L85.7458 28.6636H85.6128L77.2515 7.80761Z" fill="black"/>
<path fill-rule="evenodd" clip-rule="evenodd" d="M115.493 18.8747L111.629 7.53836L107.765 18.8747H115.493ZM123.471 27.1834C123.859 27.6324 124.431 27.935 125.187 28.0917V28.3273H115.759V28.0917C116.426 27.957 116.914 27.7386 117.225 27.4356C117.536 27.133 117.691 26.7126 117.691 26.1743C117.691 25.5915 117.547 24.8961 117.258 24.0886L115.759 19.7155H107.465L105.899 24.2905C105.677 24.9411 105.566 25.5015 105.566 25.9723C105.566 26.6005 105.76 27.0773 106.149 27.4023C106.538 27.7275 107.099 27.957 107.831 28.0917V28.3273H101.402V28.0917C102.268 27.9126 102.94 27.5425 103.418 26.9816C103.895 26.4213 104.355 25.5132 104.8 24.2568L111.629 4.78003H115.193L122.288 24.8288C122.688 25.9503 123.082 26.735 123.471 27.1834Z" fill="black"/>
</svg>
