<svg width="150" height="32" viewBox="0 0 150 32" fill="none" xmlns="http://www.w3.org/2000/svg">
<g clip-path="url(#clip0)">
<path d="M41.0963 8C35.5024 8 31.8828 11.3542 31.8828 16.5458C31.8828 21.6022 35.4892 25 40.8594 25C46.2822 25 50.0729 21.4104 50.0729 16.269C50.0729 11.3237 46.4643 8 41.0963 8ZM46.0146 12.0321C46.9425 13.586 47.0149 15.7568 47.0149 16.391C47.0149 20.8481 44.6764 23.616 40.9098 23.616C37.2859 23.616 34.9452 20.835 34.9452 16.5305C34.9452 11.2714 38.0624 9.39923 40.98 9.39923C42.6516 9.39923 44.8519 10.0923 46.0255 12.0408" fill="#231F20"/>
<path d="M150 8.2354H146.977L147.004 8.83258C147.124 11.6659 147.146 12.1476 147.104 14.9875C145.762 15.031 144.718 15.0507 142.983 15.0507C141.502 15.0507 139.995 15.0071 138.532 14.9635C138.496 12.4789 138.641 9.29681 138.696 8.44463L138.709 8.22668H135.673L135.7 8.97207C135.868 13.6645 135.888 14.266 135.888 15.9813C135.888 18.9432 135.822 20.2487 135.592 24.32L135.581 24.538H138.575V24.3353C138.532 22.6941 138.532 22.0751 138.532 20.0264V16.7572C140.144 16.718 140.655 16.718 142.809 16.718C145.067 16.718 145.672 16.718 147.094 16.779V20.07C147.094 20.6192 147.006 22.9666 146.936 24.3266V24.5445H149.886V24.3266C149.772 22.1275 149.752 21.3668 149.752 19.5317C149.752 16.7921 149.779 12.6619 150.009 8.43592L150 8.2354Z" fill="#231F20"/>
<path d="M83.2246 8.36406L83.1764 8.23547H81.6408L81.5903 8.3597C80.3399 11.4873 77.9028 16.9839 74.5464 24.2569L74.417 24.5359H76.841L76.8805 24.3898C77.41 22.4135 78.0989 20.4828 78.9404 18.6164L78.9579 18.575H84.6067L84.6637 18.697C85.5358 20.5395 86.269 22.4438 86.8574 24.3942L86.8991 24.5359H90.2093L90.0821 24.2569C90.0316 24.1501 85.0805 13.3355 83.2181 8.36406H83.2246ZM83.9573 17.0232H79.5941L81.7483 11.9668L83.9573 17.0232Z" fill="#231F20"/>
<path d="M71.9135 23.7992C71.3431 20.288 70.6324 14.0503 70.0137 8.41201L69.994 8.23547H68.7567L68.7041 8.35099C68.3465 9.14214 68.2083 9.4124 67.6884 10.4259C66.5214 12.6315 66.03 13.5534 63.6169 17.9843L62.3007 20.4232C60.6906 17.762 56.5971 10.0706 55.7986 8.35099L55.746 8.23547H54.5087L54.489 8.41201C53.9647 13.3682 52.4291 22.7836 52.1242 24.3005L52.0781 24.5359H54.5022V24.3462C54.5022 22.3019 54.8597 16.8684 55.3796 13.3638C56.8143 15.8789 58.5078 19.0915 60.1355 22.2103C60.5348 22.9841 60.7937 23.5551 61.1754 24.4269L61.228 24.5446H62.2218L62.2985 24.3484C62.6306 23.4768 63.0092 22.6235 63.4327 21.7919C64.841 18.9716 66.3612 16.0882 67.9561 13.2091C68.1754 15.297 68.8708 22.0556 68.9125 24.3506V24.5446H72.0955L72.0253 24.2939C71.9793 24.1337 71.9441 23.9706 71.92 23.8057" fill="#231F20"/>
<path d="M29.509 22.7356C27.9975 20.822 25.5428 17.7228 24.7048 16.5241C26.2404 16.2342 29.1448 15.5019 29.1448 12.2348C29.1448 10.9271 28.7434 9.99868 27.8813 9.29906C27.0542 8.6256 26.032 8.23547 23.2592 8.23547H18.4001L18.4265 8.98086C18.4901 11.3434 18.5515 13.5774 18.5515 15.5716C18.5515 19.0065 18.5032 21.7069 18.3936 24.331V24.5359H21.3748V24.3288C21.2124 21.0334 21.2146 18.7951 21.2168 17.1627V16.8837H21.5349C23.572 19.2678 25.4328 21.7954 27.1025 24.4465L27.1617 24.538H30.9305L30.6892 24.222C30.5203 24.0041 30.0881 23.4527 29.5221 22.7356H29.509ZM21.2234 9.71317C21.647 9.65258 22.0744 9.62272 22.5023 9.62381C25.1062 9.62381 26.3193 10.5348 26.3193 12.4898C26.3193 15.2077 23.9918 15.6239 22.2369 15.7002C21.8936 15.7243 21.5491 15.7243 21.2059 15.7002C21.2059 15.4823 21.2059 15.188 21.2059 14.8459C21.2059 14.1724 21.1905 13.3377 21.1905 12.7012C21.1905 11.7205 21.1905 10.707 21.23 9.71753" fill="#231F20"/>
<path d="M8.80766 8.36406L8.7594 8.23547H7.22381L7.17336 8.3597C5.92296 11.4873 3.48796 16.9818 0.129428 24.2569L0 24.5359H2.42403L2.46351 24.3898C2.99286 22.4128 3.68171 20.4813 4.52339 18.6142L4.54093 18.5771H10.1897L10.2467 18.6992C11.1188 20.5417 11.8521 22.446 12.4404 24.3964L12.4821 24.538H15.7946L15.6673 24.2591C15.6191 24.1523 10.6723 13.3616 8.80327 8.36624L8.80766 8.36406ZM9.54693 17.0232H5.1771L7.33131 11.9668L9.54693 17.0232Z" fill="#231F20"/>
<path d="M89.6074 10.2515L89.8421 10.2079C90.7898 10.027 92.3342 9.93111 94.6989 9.90496C94.7275 11.9341 94.7428 13.73 94.7428 15.3885C94.7428 18.9019 94.6551 22.0752 94.4949 24.3244L94.4796 24.5424H97.5968L97.5814 24.3244C97.3862 21.5674 97.4038 18.7602 97.4191 16.2821C97.4191 15.661 97.4191 15.066 97.4191 14.5059C97.4191 12.9802 97.4411 11.3543 97.463 9.90496C100.063 9.93329 101.425 10.0837 102.111 10.2079L102.344 10.2493V8.23547H89.5986L89.6074 10.2515Z" fill="#231F20"/>
<path d="M108.517 22.9251C108.493 22.2211 108.453 20.7216 108.453 19.6101C108.453 18.6489 108.475 17.6202 108.495 16.7615C109.059 16.7397 109.645 16.7222 110.191 16.7222C111.169 16.7283 112.145 16.8011 113.113 16.9402L113.332 16.9685V15.0397L113.113 15.0636C111.577 15.2172 110.033 15.2681 108.491 15.2162C108.471 14.1461 108.471 13.8213 108.471 12.396C108.471 11.1384 108.471 10.6981 108.508 9.91788C109.386 9.87865 109.8 9.87865 110.583 9.87865C112.49 9.87865 113.306 10.0007 114.106 10.1489L114.341 10.1925V8.23096H105.665L105.678 8.44891C105.852 11.2539 105.865 15.0593 105.865 16.1578C105.865 21.2534 105.744 22.7463 105.619 24.3286L105.602 24.5466H114.55V22.6374L114.33 22.6592C112.399 22.851 110.458 22.9398 108.517 22.9251Z" fill="#231F20"/>
<path d="M126.591 23.4242C123.542 23.4242 120.462 21.2447 120.462 16.4084C120.462 12.1083 122.739 9.43406 126.405 9.43406C128.818 9.43406 130.728 10.6916 131.29 11.8729L131.343 11.9862H131.753V9.04611L131.621 8.99598C129.99 8.35644 128.25 8.03386 126.497 8.04573C119.76 8.04573 117.362 12.3764 117.362 16.4302C117.362 21.5934 120.802 24.9302 126.137 24.9302C128.203 24.9561 130.237 24.4291 132.027 23.4046L132.124 23.3479V20.641L131.773 21.0551C131.136 21.7997 130.344 22.3974 129.451 22.8066C128.558 23.2157 127.586 23.4265 126.602 23.4242" fill="#231F20"/>
</g>
<defs>
<clipPath id="clip0">
<rect width="150" height="17" fill="white" transform="translate(0 8)"/>
</clipPath>
</defs>
</svg>
