<svg width="192" height="40" viewBox="0 0 192 40" fill="none" xmlns="http://www.w3.org/2000/svg">
<path d="M52.6003 0C45.4393 0 40.814 4.31095 40.814 10.9733C40.814 17.4727 45.4298 21.8401 52.3018 21.8401C59.2397 21.8526 64.1007 17.2438 64.1007 10.6285C64.1007 4.27019 59.4722 0 52.6003 0ZM58.8846 5.18255C60.0724 7.17969 60.1635 9.97005 60.1635 10.7789C60.1729 16.5039 57.1879 20.0655 52.3615 20.0655C47.7236 20.0655 44.726 16.4913 44.726 10.9733C44.726 4.21376 48.7166 1.8059 52.4495 1.8059C54.5893 1.8059 57.4047 2.69944 58.8941 5.20136" fill="#231F20"/>
<path d="M191.987 0.313477H188.107L188.141 1.08161C188.295 4.71848 188.324 5.3424 188.27 8.99181C186.551 9.04511 185.213 9.07333 182.994 9.07333C181.109 9.07333 179.17 9.01689 177.298 8.96046C177.254 5.76565 177.436 1.66476 177.508 0.579972L177.533 0.313477H173.65L173.681 1.25405C173.895 7.28624 173.923 8.06065 173.923 10.2647C173.923 14.074 173.838 15.7514 173.546 20.981V21.2475H177.379V20.9872C177.323 18.8772 177.323 18.0809 177.323 15.4504V11.2617C179.39 11.2084 180.047 11.2084 182.806 11.2084C185.694 11.2084 186.47 11.2084 188.289 11.2868V15.5162C188.289 16.2217 188.179 19.2378 188.088 20.9872V21.2537H191.859V20.9872C191.714 18.1655 191.686 17.1811 191.686 14.8296C191.686 11.3088 191.72 6.0008 192 0.567431L191.987 0.313477Z" fill="#231F20"/>
<path d="M106.52 0.467103L106.457 0.313477H104.493L104.43 0.473374C102.828 4.49275 99.7169 11.5596 95.4121 20.9089L95.2456 21.2663H98.3501L98.4004 21.0782C99.0782 18.5379 99.9598 16.0562 101.037 13.657L101.059 13.6037H108.286L108.358 13.7636C109.481 16.1317 110.426 18.5797 111.186 21.0876L111.239 21.2694H115.475L115.318 20.8963C115.255 20.7584 108.917 6.85672 106.52 0.467103ZM107.462 11.6003H101.869L104.634 5.09785L107.462 11.6003Z" fill="#231F20"/>
<path d="M92.044 20.3069C91.315 15.7953 90.4037 7.76594 89.6119 0.526673L89.5868 0.313477H88.0157L87.9497 0.460833C87.4909 1.47978 87.3213 1.82466 86.6488 3.12578C85.1532 5.9475 84.5121 7.14516 81.4391 12.845L79.7486 15.9803C77.681 12.5409 72.4305 2.66177 71.4187 0.451427L71.3495 0.313477H69.7785L69.7533 0.539214C69.0715 6.91002 67.1107 19.012 66.7243 20.9653L66.6646 21.2788H69.7565V21.006C69.8669 16.2864 70.2383 11.5763 70.8688 6.89748C72.7038 10.1299 74.8719 14.259 76.9552 18.269C77.4674 19.2629 77.7942 19.9996 78.2875 21.1158L78.3535 21.2663H79.6103L79.7078 21.0154C80.1331 19.8954 80.6176 18.7986 81.1594 17.7297C82.9631 14.1054 84.9081 10.3964 86.9505 6.69682C87.2333 9.38058 88.1225 18.0683 88.1759 21.0186V21.2663H92.2608L92.1728 20.9527C92.1137 20.747 92.0686 20.5375 92.0377 20.3257" fill="#231F20"/>
<path d="M37.7691 18.9399C35.821 16.4788 32.6788 12.4845 31.6199 10.9545C33.5869 10.5814 37.3009 9.64081 37.3009 5.43959C37.3009 3.76224 36.7856 2.56458 35.6827 1.6773C34.5798 0.790033 33.3072 0.313477 29.7691 0.313477H23.5665V1.25405C23.6481 4.29209 23.7267 7.16083 23.7267 9.71919C23.7267 14.1336 23.6639 17.6074 23.5225 20.9778V21.2412H27.3559V20.9747C27.1485 16.739 27.1517 13.864 27.1548 11.7634V11.4185H27.5602C30.1675 14.4824 32.5493 17.7307 34.6866 21.1377L34.762 21.2537H39.5853L39.2711 20.8461C39.0543 20.564 38.5012 19.8585 37.7785 18.9368L37.7691 18.9399ZM27.1642 2.19462C27.7064 2.11645 28.2535 2.07768 28.8013 2.07862C32.1352 2.07862 33.6874 3.24806 33.6874 5.76252C33.6874 9.25517 30.7055 9.7913 28.462 9.89163C28.0226 9.92259 27.5816 9.92259 27.1423 9.89163C27.1423 9.61886 27.1423 9.23323 27.1423 8.79116C27.1423 7.92583 27.1234 6.85358 27.1234 6.03528C27.1234 4.78119 27.1234 3.47066 27.1737 2.20089" fill="#231F20"/>
<path d="M11.2741 0.467103L11.2113 0.313477H9.24744L9.1846 0.473374C7.58209 4.48961 4.47133 11.5564 0.166536 20.9088L0 21.2537H3.10448L3.15475 21.0656C3.83214 18.5242 4.71376 16.0414 5.79104 13.6414L5.81304 13.5912H13.0401L13.1123 13.7511C14.2354 16.1192 15.1807 18.5672 15.9403 21.075L15.9937 21.2569H20.2231L20.0597 20.8994C19.9968 20.7615 13.6654 6.8818 11.2616 0.470238L11.2741 0.467103ZM12.2042 11.6003H6.62372L9.38256 5.10098L12.2042 11.6003Z" fill="#231F20"/>
<path d="M114.689 2.89378L115.004 2.82167C116.213 2.58966 118.193 2.46738 121.219 2.4329C121.257 5.04142 121.275 7.34895 121.275 9.48091C121.275 13.9957 121.162 18.0746 120.961 20.9684L120.942 21.2381H124.933L124.914 20.9684C124.663 17.4225 124.685 13.8138 124.707 10.6221C124.707 9.82579 124.707 9.05452 124.707 8.33655C124.707 6.37076 124.735 4.28582 124.763 2.42349C128.091 2.45798 129.835 2.65236 130.711 2.81226L131.026 2.86556V0.313477H114.689V2.89378Z" fill="#231F20"/>
<path d="M138.885 19.1845C138.853 18.2784 138.803 16.3628 138.803 14.9205C138.803 13.6853 138.831 12.3622 138.856 11.2586C139.576 11.2304 140.327 11.2084 141.028 11.2084C142.279 11.215 143.528 11.3072 144.767 11.4843L145.053 11.522V9.04825L144.77 9.0796C142.804 9.27635 140.828 9.3413 138.853 9.27398C138.828 7.89762 138.828 7.48063 138.828 5.64652C138.828 4.03187 138.828 3.45185 138.875 2.46111C139.994 2.41095 140.528 2.41095 141.53 2.41095C143.041 2.3698 144.553 2.48644 146.039 2.75896L146.354 2.8154V0.313477H135.243L135.259 0.583107C135.478 4.18863 135.497 9.0796 135.497 10.4905C135.497 17.04 135.343 18.9556 135.183 20.9935L135.161 21.2663H146.614V18.8114L146.335 18.8396C143.859 19.0876 141.372 19.2028 138.885 19.1845Z" fill="#231F20"/>
<path d="M162.023 19.824C158.121 19.824 154.168 17.0368 154.168 10.807C154.168 5.27962 157.084 1.84653 161.772 1.84653C164.867 1.84653 167.305 3.46118 168.025 4.98177L168.094 5.12599H168.619V1.34489L168.459 1.28219C166.372 0.460072 164.147 0.0449889 161.904 0.0594471C153.282 0.0594471 150.196 5.62763 150.196 10.8353C150.196 17.4726 154.595 21.7616 161.414 21.7616C164.06 21.7909 166.665 21.1086 168.955 19.7864L169.078 19.7111V16.2467L168.628 16.7797C167.813 17.7366 166.799 18.5046 165.656 19.0304C164.513 19.5562 163.269 19.827 162.011 19.824" fill="#231F20"/>
<path d="M37.0148 34.5691V36.2089H39.6448V37.0585H37.0148V39.6325H35.937V33.7195H39.7862V34.5691H37.0148Z" fill="#231F20"/>
<path d="M43.7582 37.2592H42.715V39.6325H41.6372V33.7195H44.0253C45.5524 33.7195 46.0802 34.519 46.0802 35.494C46.0931 35.8684 45.9745 36.2355 45.7451 36.532C45.5156 36.8285 45.1896 37.0358 44.8234 37.1181L46.2342 39.6263H45.059L43.7582 37.2592ZM42.715 36.4597H43.843C44.6537 36.4597 44.9522 36.0521 44.9522 35.494C44.9522 34.936 44.638 34.5346 43.843 34.5346H42.715V36.4597Z" fill="#231F20"/>
<path d="M51.5691 38.0744H49.2502L48.716 39.6421H47.6226L49.8221 33.729H50.991L53.1905 39.6421H52.097L51.5691 38.0744ZM51.2863 37.2593L50.5888 35.259C50.5141 35.0548 50.4553 34.8451 50.4128 34.632H50.3971C50.3546 34.8452 50.2958 35.0548 50.2211 35.259L49.5299 37.2593H51.2863Z" fill="#231F20"/>
<path d="M54.272 36.6822C54.272 34.8512 55.3152 33.5752 57.0999 33.5752C58.7025 33.5752 59.3717 34.5659 59.5131 35.3748L58.4448 35.5567C58.4061 35.2302 58.2435 34.9309 57.9904 34.7204C57.7373 34.5099 57.413 34.4041 57.0842 34.4248C56.0002 34.4248 55.3812 35.3247 55.3812 36.6728C55.3812 37.9708 55.9499 38.9051 57.0937 38.9051C57.2956 38.9132 57.4971 38.8792 57.6852 38.8053C57.8733 38.7314 58.0439 38.6191 58.1861 38.4758C58.3283 38.3324 58.439 38.1611 58.5111 37.9726C58.5833 37.7842 58.6152 37.5828 58.605 37.3814V37.2716H57.0025V36.4471H59.5823V39.6293H58.8156L58.7244 38.7201C58.4479 39.3472 57.7818 39.7704 56.8957 39.7704C55.2586 39.7704 54.2845 38.5163 54.2845 36.6791" fill="#231F20"/>
<path d="M63.7548 37.2592H62.7116V39.6325H61.6338V33.7195H64.0219C65.549 33.7195 66.0768 34.519 66.0768 35.494C66.0897 35.8684 65.9711 36.2355 65.7417 36.532C65.5122 36.8285 65.1862 37.0358 64.82 37.1181L66.2308 39.6263H65.0431L63.7548 37.2592ZM62.7116 36.4597H63.8396C64.6503 36.4597 64.9488 36.0521 64.9488 35.494C64.9488 34.936 64.6346 34.5346 63.8396 34.5346H62.7116V36.4597Z" fill="#231F20"/>
<path d="M71.5664 38.0744H69.2443L68.7102 39.6421H67.6167L69.8162 33.729H70.9851L73.1846 39.6421H72.0912L71.5664 38.0744ZM71.2836 37.2593L70.5892 35.259C70.5146 35.0548 70.4557 34.8452 70.4132 34.632H70.385C70.3425 34.8451 70.2836 35.0548 70.209 35.259L69.5146 37.2593H71.2836Z" fill="#231F20"/>
<path d="M74.9033 33.7195H76.1382L78.366 37.5915C78.5123 37.8322 78.6354 38.0863 78.7336 38.3502H78.7494C78.7494 38.1339 78.7336 37.9019 78.7336 37.5852V33.7195H79.7109V39.6325H78.5011L76.2387 35.7417C76.1024 35.5036 75.9827 35.2564 75.8805 35.0018H75.8648C75.8805 35.2275 75.8805 35.4595 75.8805 35.7856V39.6325H74.9033V33.7195Z" fill="#231F20"/>
<path d="M81.5961 36.6824C81.5961 34.842 82.6047 33.5911 84.3832 33.5911C85.86 33.5911 86.7021 34.4313 86.8624 35.6917L85.7594 35.8484C85.6589 35.0082 85.1656 34.4752 84.3486 34.4752C83.3054 34.4752 82.7052 35.3499 82.7052 36.6699C82.7052 37.9898 83.2897 38.8865 84.3737 38.8865C85.1342 38.8865 85.6495 38.3786 85.8003 37.5446L86.8686 37.7609C86.7815 38.352 86.4744 38.8886 86.0086 39.2639C85.5427 39.6393 84.9523 39.8258 84.3549 39.7863C82.4947 39.7863 81.5835 38.4695 81.5835 36.6793" fill="#231F20"/>
<path d="M92.6382 38.7923V39.6325H88.7324V33.7195H92.5784V34.5597H89.807V36.1838H92.437V37.0178H89.807V38.7923H92.6382Z" fill="#231F20"/>
<path d="M93.9886 38.115L94.8936 37.7168C94.9788 38.0719 95.1855 38.3861 95.478 38.6053C95.7706 38.8245 96.1307 38.935 96.4961 38.9176C97.1057 38.9176 97.6744 38.6762 97.6744 38.0586C97.6744 37.4409 97.3225 37.2842 96.6721 37.1494L95.8457 36.9738C94.903 36.7825 94.2934 36.2809 94.2934 35.2745C94.2934 34.2681 95.1293 33.5752 96.4647 33.5752C97.5927 33.5752 98.4851 34.0329 98.7428 35.0174L97.885 35.4657C97.8099 35.1403 97.6201 34.8526 97.3501 34.6552C97.0801 34.4578 96.748 34.3638 96.4144 34.3904C95.786 34.3904 95.3366 34.7039 95.3366 35.1898C95.3366 35.6758 95.6037 35.9235 96.2542 36.0646L97.1151 36.2464C98.0923 36.4565 98.7428 36.9048 98.7428 37.9551C98.7428 39.0054 97.9761 39.7704 96.4647 39.7704C95.0633 39.7704 94.218 39.0775 93.9761 38.1119" fill="#231F20"/>
<path d="M104.628 34.5691V36.2089H107.258V37.0585H104.628V39.6325H103.554V33.7195H107.4V34.5691H104.628Z" fill="#231F20"/>
<path d="M108.776 36.6823C108.776 34.7573 109.879 33.5847 111.582 33.5847C113.285 33.5847 114.376 34.751 114.376 36.6823C114.376 38.6136 113.273 39.7799 111.57 39.7799C109.867 39.7799 108.764 38.5729 108.764 36.6823H108.776ZM113.254 36.6823C113.254 35.2903 112.625 34.45 111.566 34.45C110.508 34.45 109.879 35.2903 109.879 36.6823C109.879 38.0744 110.508 38.9146 111.566 38.9146C112.625 38.9146 113.254 38.0744 113.254 36.6823Z" fill="#231F20"/>
<path d="M118.391 37.2592H117.347V39.6325H116.26V33.7195H118.648C120.175 33.7195 120.703 34.519 120.703 35.494C120.716 35.8683 120.597 36.2351 120.367 36.5314C120.138 36.8278 119.812 37.0352 119.446 37.1181L120.857 39.6263H119.673L118.391 37.2592ZM117.347 36.4597H118.46C119.27 36.4597 119.569 36.0521 119.569 35.494C119.569 34.936 119.255 34.5346 118.46 34.5346H117.332L117.347 36.4597Z" fill="#231F20"/>
<path d="M125.719 33.7195H126.793V38.7484H129.383V39.6325H125.719V33.7195Z" fill="#231F20"/>
<path d="M132.204 33.7195H131.126V39.6325H132.204V33.7195Z" fill="#231F20"/>
<path d="M133.803 33.7195H134.947L136.204 37.8172C136.289 38.0824 136.359 38.3525 136.411 38.6261H136.446C136.492 38.3517 136.559 38.0812 136.647 37.8172L137.904 33.7195H139.057L137.027 39.6325H135.799L133.803 33.7195Z" fill="#231F20"/>
<path d="M141.75 33.7195H140.672V39.6325H141.75V33.7195Z" fill="#231F20"/>
<path d="M144.053 33.7195H145.288L147.516 37.5915C147.662 37.8322 147.785 38.0862 147.884 38.3502H147.899C147.899 38.1339 147.884 37.9019 147.884 37.5852V33.7195H148.861V39.6325H147.651L145.389 35.7417C145.252 35.5037 145.132 35.2565 145.03 35.0018H145.015C145.03 35.2275 145.03 35.4595 145.03 35.7856V39.6325H144.053V33.7195Z" fill="#231F20"/>
<path d="M150.746 36.6822C150.746 34.8512 151.789 33.5752 153.574 33.5752C155.177 33.5752 155.846 34.5659 155.987 35.3748L154.919 35.5567C154.88 35.2302 154.718 34.9309 154.465 34.7204C154.211 34.5099 153.887 34.4041 153.558 34.4248C152.474 34.4248 151.855 35.3247 151.855 36.6728C151.855 37.9708 152.424 38.9051 153.568 38.9051C153.77 38.9132 153.971 38.8792 154.159 38.8053C154.347 38.7314 154.518 38.6191 154.66 38.4758C154.802 38.3324 154.913 38.1611 154.985 37.9726C155.057 37.7842 155.089 37.5828 155.079 37.3814V37.2716H153.477V36.4471H156.056V39.6293H155.29L155.199 38.7201C154.922 39.3472 154.256 39.7704 153.37 39.7704C151.733 39.7704 150.756 38.5163 150.756 36.6791" fill="#231F20"/>
</svg>
