<?xml version="1.0" encoding="utf-8"?>
<!-- Generator: Adobe Illustrator 24.3.0, SVG Export Plug-In . SVG Version: 6.00 Build 0)  -->
<svg version="1.1" xmlns="http://www.w3.org/2000/svg" xmlns:xlink="http://www.w3.org/1999/xlink" x="0px" y="0px"
	 viewBox="0 0 11.11 11.14" style="enable-background:new 0 0 11.11 11.14;" xml:space="preserve">
</style>
<path class="st0" d="M6.37,5.56l4.61-4.61c0.09-0.11,0.14-0.24,0.13-0.38c-0.01-0.14-0.06-0.27-0.16-0.37
	c-0.1-0.1-0.23-0.16-0.37-0.16c-0.14-0.01-0.28,0.04-0.38,0.13L5.59,4.77L0.98,0.16C0.88,0.06,0.74,0,0.59,0
	C0.44,0,0.3,0.06,0.19,0.16S0.03,0.41,0.03,0.56c0,0.15,0.06,0.29,0.16,0.39l4.61,4.61l-4.61,4.61c-0.06,0.05-0.11,0.11-0.14,0.18
	C0.02,10.41,0,10.49,0,10.56c0,0.08,0.01,0.15,0.04,0.22c0.03,0.07,0.07,0.14,0.12,0.19c0.05,0.05,0.12,0.1,0.19,0.12
	c0.07,0.03,0.15,0.04,0.22,0.04c0.08,0,0.15-0.02,0.22-0.05c0.07-0.03,0.13-0.08,0.18-0.14l4.61-4.61l4.61,4.61
	c0.11,0.09,0.24,0.14,0.38,0.13c0.14-0.01,0.27-0.06,0.37-0.16c0.1-0.1,0.16-0.23,0.16-0.37c0.01-0.14-0.04-0.28-0.13-0.38
	L6.37,5.56z"/>
</svg>
