<?xml version="1.0" encoding="utf-8"?>
<!-- Generator: Adobe Illustrator 24.3.0, SVG Export Plug-In . SVG Version: 6.00 Build 0)  -->
<svg version="1.1" xmlns="http://www.w3.org/2000/svg" xmlns:xlink="http://www.w3.org/1999/xlink" x="0px" y="0px"
	 viewBox="0 0 10.67 14" style="enable-background:new 0 0 10.67 14;" xml:space="preserve">
</style>
<path class="st0" d="M9.33,4.67H8.67V3.33C8.67,1.49,7.17,0,5.33,0S2,1.49,2,3.33v1.33H1.33C0.6,4.67,0,5.27,0,6v6.67
	C0,13.4,0.6,14,1.33,14h8c0.73,0,1.33-0.6,1.33-1.33V6C10.67,5.27,10.07,4.67,9.33,4.67z M5.33,10.67C4.6,10.67,4,10.07,4,9.33
	C4,8.6,4.6,8,5.33,8c0.73,0,1.33,0.6,1.33,1.33C6.67,10.07,6.07,10.67,5.33,10.67z M7.4,4.67H3.27V3.33c0-1.14,0.93-2.07,2.07-2.07
	S7.4,2.19,7.4,3.33V4.67z"/>
</svg>